<?xml version="1.0" encoding="UTF-8"?>
<svg version="1.1" xmlns="http://www.w3.org/2000/svg" width="640" height="480">
<path d="M0 0 C211.2 0 422.4 0 640 0 C640 158.4 640 316.8 640 480 C428.8 480 217.6 480 0 480 C0 321.6 0 163.2 0 0 Z " fill="#141414" transform="translate(0,0)"/>
<!--
<path d="M0 0 C8.47493503 8.13513811 12.97763173 18.85225094 13.25 30.5 C12.97591753 42.93649204 7.9125309 53.63589673 -0.5546875 62.65625 C-8.62045681 70.22032074 -19.11352963 73.47911625 -30 74 C-43.17252329 73.34465058 -53.14338621 67.57554444 -62 58 C-69.65725396 48.16647386 -72.20220115 36.28916734 -71 24 C-69.02367527 12.93258149 -62.82854086 2.92609434 -54 -4 C-36.23712202 -15.32194772 -15.81999669 -13.90953098 0 0 Z " fill="#FCFCFC" transform="translate(352,132)"/>
<path d="M0 0 C0.33 1.65 0.66 3.3 1 5 C0.01 5.66 -0.98 6.32 -2 7 C-2.99 6.01 -3.98 5.02 -5 4 C-8.08759559 4.64067976 -8.08759559 4.64067976 -8.94921875 6.84765625 C-9.19285156 7.57855469 -9.43648438 8.30945313 -9.6875 9.0625 C-9.93886719 9.79597656 -10.19023437 10.52945313 -10.44921875 11.28515625 C-10.63097656 11.85105469 -10.81273437 12.41695312 -11 13 C-9.02 13 -7.04 13 -5 13 C-5.33 14.32 -5.66 15.64 -6 17 C-7.98 17 -9.96 17 -12 17 C-12.04898437 17.64324219 -12.09796875 18.28648437 -12.1484375 18.94921875 C-12.39839704 21.97028142 -12.69161985 24.98432896 -13 28 C-13.16628906 29.67255859 -13.16628906 29.67255859 -13.3359375 31.37890625 C-14.18801072 38.31606838 -15.10976578 42.88748241 -20 48 C-24.93548387 51 -24.93548387 51 -28 51 C-26.91140982 48.82281964 -25.82436055 46.70981308 -24.5625 44.625 C-22.3279907 39.44093842 -21.65370272 34.18282965 -20.8125 28.625 C-20.54663086 26.94857422 -20.54663086 26.94857422 -20.27539062 25.23828125 C-19.84137893 22.49345053 -19.41655205 19.74752514 -19 17 C-20.32 17 -21.64 17 -23 17 C-22.67 16.01 -22.34 15.02 -22 14 C-19.9375 13.3125 -19.9375 13.3125 -18 13 C-17.79375 11.783125 -17.5875 10.56625 -17.375 9.3125 C-16.41572549 5.61337981 -15.09903815 3.18933435 -11.9296875 0.83203125 C-8.11699748 -0.81190189 -4.05802026 -0.36089113 0 0 Z " fill="#0E0E0E" transform="translate(337,139)"/>
<path d="M0 0 C3.3 0 6.6 0 10 0 C10.33 1.65 10.66 3.3 11 5 C10.01 5.66 9.02 6.32 8 7 C6.5 5.6875 6.5 5.6875 5 4 C5 3.01 5 2.02 5 1 C3.35 1 1.7 1 0 1 C0 0.67 0 0.34 0 0 Z " fill="#202020" transform="translate(327,139)"/>
-->
</svg>
